# xmcd
#
# Track frame offsets:
#	150
#	16880
#	34323
#	52190
#	70195
#	92410
#	111453
#	133408
#	152363
#	169748
#	193720
#	214633
#	236173
#
# Disc length: 3475 seconds
#
# Revision: 0
# Processed by: cddbd v1.5.2PL0 Copyright (c) Steve Scherf et al.
# Submitted via: EasyCDDAExtractor 10.0.2.1
#
DISCID=b70d910d
DTITLE=D. J. Rogers, JR - EmoSoul
DYEAR=2002
DGENRE=Soul
TTITLE0=Alone
TTITLE1=Wanna Be In Love
TTITLE2=Lonely Girl
TTITLE3=Don't Miss The Good Stuff
TTITLE4=Smile
TTITLE5=Rather Be In Love
TTITLE6=Please Don't Leave
TTITLE7=Where Is The Love
TTITLE8=Never Felt Like This (Lady)
TTITLE9=Send Me An Angel
TTITLE10=All I Have f Carl Thomas
TTITLE11=You  And Me
TTITLE12=Wonderful Beautiful Amazing f India Arie
EXTD=
EXTT0=
EXTT1=
EXTT2=
EXTT3=
EXTT4=
EXTT5=
EXTT6=
EXTT7=
EXTT8=
EXTT9=
EXTT10=
EXTT11=
EXTT12=
PLAYORDER=
